<svg xmlns="http://www.w3.org/2000/svg" width="1440" height="900"><path d="M735,403L686,335L651,394Z" fill="#89b1d4" stroke="#89b1d4" stroke-width="1.51"/><path d="M651,394L680,480L735,403Z" fill="#7fadd1" stroke="#7fadd1" stroke-width="1.51"/><path d="M686,335L606,316L651,394Z" fill="#95b6d7" stroke="#95b6d7" stroke-width="1.51"/><path d="M651,394L582,498L680,480Z" fill="#7facd1" stroke="#7facd1" stroke-width="1.51"/><path d="M606,316L580,384L651,394Z" fill="#97b6d7" stroke="#97b6d7" stroke-width="1.51"/><path d="M735,403L790,315L686,335Z" fill="#88b1d4" stroke="#88b1d4" stroke-width="1.51"/><path d="M686,335L654,259L606,316Z" fill="#9ebad9" stroke="#9ebad9" stroke-width="1.51"/><path d="M735,236L654,259L686,335Z" fill="#9ebad9" stroke="#9ebad9" stroke-width="1.51"/><path d="M735,403L876,414L790,315Z" fill="#7aaacf" stroke="#7aaacf" stroke-width="1.51"/><path d="M680,480L778,494L735,403Z" fill="#71a7ce" stroke="#71a7ce" stroke-width="1.51"/><path d="M790,315L735,236L686,335Z" fill="#94b5d7" stroke="#94b5d7" stroke-width="1.51"/><path d="M580,384L582,498L651,394Z" fill="#8bb1d5" stroke="#8bb1d5" stroke-width="1.51"/><path d="M680,480L774,551L778,494Z" fill="#62a1ca" stroke="#62a1ca" stroke-width="1.51"/><path d="M790,315L834,291L735,236Z" fill="#90b3d5" stroke="#90b3d5" stroke-width="1.51"/><path d="M876,414L834,291L790,315Z" fill="#7eabd1" stroke="#7eabd1" stroke-width="1.51"/><path d="M778,494L876,414L735,403Z" fill="#6ca4cd" stroke="#6ca4cd" stroke-width="1.51"/><path d="M688,593L774,551L680,480Z" fill="#5f9fc9" stroke="#5f9fc9" stroke-width="1.51"/><path d="M778,494L830,513L876,414Z" fill="#5e9fc9" stroke="#5e9fc9" stroke-width="1.51"/><path d="M774,551L830,513L778,494Z" fill="#589cc7" stroke="#589cc7" stroke-width="1.51"/><path d="M654,259L596,211L606,316Z" fill="#aabfdc" stroke="#aabfdc" stroke-width="1.51"/><path d="M485,309L481,428L580,384Z" fill="#a2bbda" stroke="#a2bbda" stroke-width="1.51"/><path d="M698,148L596,211L654,259Z" fill="#b0c3de" stroke="#b0c3de" stroke-width="1.51"/><path d="M834,291L864,262L735,236Z" fill="#91b3d5" stroke="#91b3d5" stroke-width="1.51"/><path d="M938,312L864,262L834,291Z" fill="#83acd1" stroke="#83acd1" stroke-width="1.51"/><path d="M582,498L688,593L680,480Z" fill="#6da5cc" stroke="#6da5cc" stroke-width="1.51"/><path d="M580,384L488,469L582,498Z" fill="#8cb2d5" stroke="#8cb2d5" stroke-width="1.51"/><path d="M582,498L580,579L688,593Z" fill="#6ba2cc" stroke="#6ba2cc" stroke-width="1.51"/><path d="M485,309L580,384L606,316Z" fill="#a4bcdb" stroke="#a4bcdb" stroke-width="1.51"/><path d="M519,233L485,309L606,316Z" fill="#b0c1de" stroke="#b0c1de" stroke-width="1.51"/><path d="M481,428L488,469L580,384Z" fill="#96b6d7" stroke="#96b6d7" stroke-width="1.51"/><path d="M596,211L519,233L606,316Z" fill="#b2c2de" stroke="#b2c2de" stroke-width="1.51"/><path d="M488,469L580,579L582,498Z" fill="#7eabd0" stroke="#7eabd0" stroke-width="1.51"/><path d="M735,236L698,148L654,259Z" fill="#a9bfdc" stroke="#a9bfdc" stroke-width="1.51"/><path d="M596,211L525,133L519,233Z" fill="#bec9e2" stroke="#bec9e2" stroke-width="1.51"/><path d="M739,126L698,148L735,236Z" fill="#abc2de" stroke="#abc2de" stroke-width="1.51"/><path d="M876,414L938,312L834,291Z" fill="#77a7ce" stroke="#77a7ce" stroke-width="1.51"/><path d="M964,478L934,387L876,414Z" fill="#5d9cc8" stroke="#5d9cc8" stroke-width="1.51"/><path d="M934,387L938,312L876,414Z" fill="#6ca2cb" stroke="#6ca2cb" stroke-width="1.51"/><path d="M868,165L739,126L735,236Z" fill="#a3bddb" stroke="#a3bddb" stroke-width="1.51"/><path d="M481,428L446,422L488,469Z" fill="#99b8d8" stroke="#99b8d8" stroke-width="1.51"/><path d="M512,648L599,661L580,579Z" fill="#6b9bc8" stroke="#6b9bc8" stroke-width="1.51"/><path d="M420,341L446,422L481,428Z" fill="#a4bcdb" stroke="#a4bcdb" stroke-width="1.51"/><path d="M698,148L600,125L596,211Z" fill="#b8c8e1" stroke="#b8c8e1" stroke-width="1.51"/><path d="M868,165L735,236L864,262Z" fill="#97b6d6" stroke="#97b6d6" stroke-width="1.51"/><path d="M830,513L964,478L876,414Z" fill="#559bc7" stroke="#559bc7" stroke-width="1.51"/><path d="M774,551L872,568L830,513Z" fill="#4b97c4" stroke="#4b97c4" stroke-width="1.51"/><path d="M836,638L872,568L774,551Z" fill="#4391c2" stroke="#4391c2" stroke-width="1.51"/><path d="M606,86L600,125L698,148Z" fill="#bdcce3" stroke="#bdcce3" stroke-width="1.51"/><path d="M946,259L868,165L864,262Z" fill="#8db0d4" stroke="#8db0d4" stroke-width="1.51"/><path d="M485,309L420,341L481,428Z" fill="#abbfdd" stroke="#abbfdd" stroke-width="1.51"/><path d="M390,233L420,341L485,309Z" fill="#bbc7e0" stroke="#bbc7e0" stroke-width="1.51"/><path d="M390,233L485,309L519,233Z" fill="#bec8e2" stroke="#bec8e2" stroke-width="1.51"/><path d="M938,312L946,259L864,262Z" fill="#81aad0" stroke="#81aad0" stroke-width="1.51"/><path d="M1003,311L946,259L938,312Z" fill="#7ba4cd" stroke="#7ba4cd" stroke-width="1.51"/><path d="M872,568L964,478L830,513Z" fill="#4795c3" stroke="#4795c3" stroke-width="1.51"/><path d="M934,387L1003,311L938,312Z" fill="#72a1cb" stroke="#72a1cb" stroke-width="1.51"/><path d="M599,661L677,666L688,593Z" fill="#5c94c4" stroke="#5c94c4" stroke-width="1.51"/><path d="M688,593L745,665L774,551Z" fill="#5195c4" stroke="#5195c4" stroke-width="1.51"/><path d="M677,666L745,665L688,593Z" fill="#5392c3" stroke="#5392c3" stroke-width="1.51"/><path d="M745,665L836,638L774,551Z" fill="#4790c1" stroke="#4790c1" stroke-width="1.51"/><path d="M872,568L934,589L964,478Z" fill="#3a90c0" stroke="#3a90c0" stroke-width="1.51"/><path d="M476,601L580,579L488,469Z" fill="#7ca9d0" stroke="#7ca9d0" stroke-width="1.51"/><path d="M580,579L599,661L688,593Z" fill="#649bc8" stroke="#649bc8" stroke-width="1.51"/><path d="M600,125L525,133L596,211Z" fill="#c0cbe3" stroke="#c0cbe3" stroke-width="1.51"/><path d="M446,422L422,507L488,469Z" fill="#96b6d7" stroke="#96b6d7" stroke-width="1.51"/><path d="M350,464L422,507L446,422Z" fill="#9bb9d8" stroke="#9bb9d8" stroke-width="1.51"/><path d="M600,125L606,86L525,133Z" fill="#c4d0e6" stroke="#c4d0e6" stroke-width="1.51"/><path d="M699,55L606,86L698,148Z" fill="#bacce3" stroke="#bacce3" stroke-width="1.51"/><path d="M422,507L476,601L488,469Z" fill="#88afd3" stroke="#88afd3" stroke-width="1.51"/><path d="M964,478L1010,393L934,387Z" fill="#5c98c6" stroke="#5c98c6" stroke-width="1.51"/><path d="M946,259L950,169L868,165Z" fill="#8fb0d4" stroke="#8fb0d4" stroke-width="1.51"/><path d="M1010,393L1003,311L934,387Z" fill="#6a9cc9" stroke="#6a9cc9" stroke-width="1.51"/><path d="M836,638L934,589L872,568Z" fill="#368cbf" stroke="#368cbf" stroke-width="1.51"/><path d="M964,478L996,515L1010,393Z" fill="#4f93c3" stroke="#4f93c3" stroke-width="1.51"/><path d="M868,165L776,73L739,126Z" fill="#a8c1dd" stroke="#a8c1dd" stroke-width="1.51"/><path d="M739,126L699,55L698,148Z" fill="#b3c8e1" stroke="#b3c8e1" stroke-width="1.51"/><path d="M476,601L512,648L580,579Z" fill="#73a0cb" stroke="#73a0cb" stroke-width="1.51"/><path d="M776,73L699,55L739,126Z" fill="#b3c8e1" stroke="#b3c8e1" stroke-width="1.51"/><path d="M934,589L996,515L964,478Z" fill="#3d8ec0" stroke="#3d8ec0" stroke-width="1.51"/><path d="M868,165L825,43L776,73Z" fill="#a7c2dd" stroke="#a7c2dd" stroke-width="1.51"/><path d="M1014,253L950,169L946,259Z" fill="#88a9d0" stroke="#88a9d0" stroke-width="1.51"/><path d="M426,130L390,233L519,233Z" fill="#cacfe5" stroke="#cacfe5" stroke-width="1.51"/><path d="M420,341L343,426L446,422Z" fill="#aabfdc" stroke="#aabfdc" stroke-width="1.51"/><path d="M422,507L422,587L476,601Z" fill="#83abd1" stroke="#83abd1" stroke-width="1.51"/><path d="M476,601L431,640L512,648Z" fill="#78a0cb" stroke="#78a0cb" stroke-width="1.51"/><path d="M347,557L422,587L422,507Z" fill="#8bb0d3" stroke="#8bb0d3" stroke-width="1.51"/><path d="M1003,311L1014,253L946,259Z" fill="#7ea3cd" stroke="#7ea3cd" stroke-width="1.51"/><path d="M1115,334L1014,253L1003,311Z" fill="#749cc9" stroke="#749cc9" stroke-width="1.51"/><path d="M323,304L343,426L420,341Z" fill="#b7c5e0" stroke="#b7c5e0" stroke-width="1.51"/><path d="M343,426L350,464L446,422Z" fill="#a4bddb" stroke="#a4bddb" stroke-width="1.51"/><path d="M746,-36L694,-21L699,55Z" fill="#bdd0e5" stroke="#bdd0e5" stroke-width="1.51"/><path d="M946,66L825,43L868,165Z" fill="#a0bedb" stroke="#a0bedb" stroke-width="1.51"/><path d="M525,133L426,130L519,233Z" fill="#c9d0e5" stroke="#c9d0e5" stroke-width="1.51"/><path d="M439,45L426,130L525,133Z" fill="#d3d6ea" stroke="#d3d6ea" stroke-width="1.51"/><path d="M479,32L525,133L606,86Z" fill="#ccd4e8" stroke="#ccd4e8" stroke-width="1.51"/><path d="M422,587L431,640L476,601Z" fill="#7ea4cd" stroke="#7ea4cd" stroke-width="1.51"/><path d="M610,775L660,752L599,661Z" fill="#5b8bba" stroke="#5b8bba" stroke-width="1.51"/><path d="M319,640L431,640L422,587Z" fill="#83a6ce" stroke="#83a6ce" stroke-width="1.51"/><path d="M934,589L996,597L996,515Z" fill="#2f88bc" stroke="#2f88bc" stroke-width="1.51"/><path d="M996,515L1087,484L1010,393Z" fill="#4c8fc1" stroke="#4c8fc1" stroke-width="1.51"/><path d="M928,685L996,597L934,589Z" fill="#2882b9" stroke="#2882b9" stroke-width="1.51"/><path d="M928,685L934,589L836,638Z" fill="#2b85bb" stroke="#2b85bb" stroke-width="1.51"/><path d="M599,661L660,752L677,666Z" fill="#598ebf" stroke="#598ebf" stroke-width="1.51"/><path d="M677,666L660,752L745,665Z" fill="#508bbd" stroke="#508bbd" stroke-width="1.51"/><path d="M837,759L928,685L836,638Z" fill="#2d80b6" stroke="#2d80b6" stroke-width="1.51"/><path d="M516,737L599,661L512,648Z" fill="#6995c5" stroke="#6995c5" stroke-width="1.51"/><path d="M335,256L323,304L420,341Z" fill="#c2cae3" stroke="#c2cae3" stroke-width="1.51"/><path d="M335,256L420,341L390,233Z" fill="#c4cbe3" stroke="#c4cbe3" stroke-width="1.51"/><path d="M344,155L335,256L390,233Z" fill="#d2d2e7" stroke="#d2d2e7" stroke-width="1.51"/><path d="M837,759L836,638L745,665Z" fill="#3b85ba" stroke="#3b85ba" stroke-width="1.51"/><path d="M350,464L347,557L422,507Z" fill="#96b6d6" stroke="#96b6d6" stroke-width="1.51"/><path d="M269,598L347,557L223,473Z" fill="#98b7d7" stroke="#98b7d7" stroke-width="1.51"/><path d="M319,640L347,557L269,598Z" fill="#8eaed2" stroke="#8eaed2" stroke-width="1.51"/><path d="M446,729L516,737L512,648Z" fill="#6f95c2" stroke="#6f95c2" stroke-width="1.51"/><path d="M446,729L512,648L431,640Z" fill="#759ac8" stroke="#759ac8" stroke-width="1.51"/><path d="M660,752L738,778L745,665Z" fill="#4b87b6" stroke="#4b87b6" stroke-width="1.51"/><path d="M672,856L738,778L660,752Z" fill="#4c81ac" stroke="#4c81ac" stroke-width="1.51"/><path d="M699,55L694,-21L606,86Z" fill="#bfd0e6" stroke="#bfd0e6" stroke-width="1.51"/><path d="M746,-36L699,55L776,73Z" fill="#b7cce3" stroke="#b7cce3" stroke-width="1.51"/><path d="M950,169L946,66L868,165Z" fill="#98b7d7" stroke="#98b7d7" stroke-width="1.51"/><path d="M825,43L746,-36L776,73Z" fill="#b2c9e2" stroke="#b2c9e2" stroke-width="1.51"/><path d="M1036,153L946,66L950,169Z" fill="#95b2d5" stroke="#95b2d5" stroke-width="1.51"/><path d="M516,737L610,775L599,661Z" fill="#628ebc" stroke="#628ebc" stroke-width="1.51"/><path d="M738,778L837,759L745,665Z" fill="#4082b4" stroke="#4082b4" stroke-width="1.51"/><path d="M1114,560L996,515L996,597Z" fill="#2c84bb" stroke="#2c84bb" stroke-width="1.51"/><path d="M1114,560L1087,484L996,515Z" fill="#3785bc" stroke="#3785bc" stroke-width="1.51"/><path d="M1010,393L1115,334L1003,311Z" fill="#6a98c7" stroke="#6a98c7" stroke-width="1.51"/><path d="M426,130L344,155L390,233Z" fill="#d4d4e8" stroke="#d4d4e8" stroke-width="1.51"/><path d="M587,-45L479,32L606,86Z" fill="#ced7ea" stroke="#ced7ea" stroke-width="1.51"/><path d="M1128,219L1036,153L1014,253Z" fill="#85a3cd" stroke="#85a3cd" stroke-width="1.51"/><path d="M1014,253L1036,153L950,169Z" fill="#8ba9d1" stroke="#8ba9d1" stroke-width="1.51"/><path d="M335,256L242,252L323,304Z" fill="#ccd0e6" stroke="#ccd0e6" stroke-width="1.51"/><path d="M349,80L344,155L426,130Z" fill="#dcdaeb" stroke="#dcdaeb" stroke-width="1.51"/><path d="M694,-21L587,-45L606,86Z" fill="#c7d4e8" stroke="#c7d4e8" stroke-width="1.51"/><path d="M859,-36L746,-36L825,43Z" fill="#b1c9e1" stroke="#b1c9e1" stroke-width="1.51"/><path d="M479,32L439,45L525,133Z" fill="#d4d8ea" stroke="#d4d8ea" stroke-width="1.51"/><path d="M1126,406L1115,334L1010,393Z" fill="#6092c3" stroke="#6092c3" stroke-width="1.51"/><path d="M566,865L672,856L610,775Z" fill="#557ea6" stroke="#557ea6" stroke-width="1.51"/><path d="M354,764L446,729L431,640Z" fill="#7998c4" stroke="#7998c4" stroke-width="1.51"/><path d="M1087,484L1126,406L1010,393Z" fill="#538ec1" stroke="#538ec1" stroke-width="1.51"/><path d="M661,-108L587,-45L694,-21Z" fill="#c5d3e8" stroke="#c5d3e8" stroke-width="1.51"/><path d="M479,32L394,-32L439,45Z" fill="#dddeed" stroke="#dddeed" stroke-width="1.51"/><path d="M946,66L859,-36L825,43Z" fill="#a6c2de" stroke="#a6c2de" stroke-width="1.51"/><path d="M746,-36L661,-108L694,-21Z" fill="#bfd0e6" stroke="#bfd0e6" stroke-width="1.51"/><path d="M955,-28L859,-36L946,66Z" fill="#a4c0dd" stroke="#a4c0dd" stroke-width="1.51"/><path d="M1214,511L1167,399L1126,406Z" fill="#4d87b7" stroke="#4d87b7" stroke-width="1.51"/><path d="M1101,680L1114,560L996,597Z" fill="#1c7ab5" stroke="#1c7ab5" stroke-width="1.51"/><path d="M1050,695L996,597L928,685Z" fill="#1c7ab5" stroke="#1c7ab5" stroke-width="1.51"/><path d="M347,557L319,640L422,587Z" fill="#89abd1" stroke="#89abd1" stroke-width="1.51"/><path d="M223,473L350,464L343,426Z" fill="#a7c0dc" stroke="#a7c0dc" stroke-width="1.51"/><path d="M344,155L242,252L335,256Z" fill="#d4d4e8" stroke="#d4d4e8" stroke-width="1.51"/><path d="M439,45L349,80L426,130Z" fill="#dcdbeb" stroke="#dcdbeb" stroke-width="1.51"/><path d="M394,-32L349,80L439,45Z" fill="#e1e0ee" stroke="#e1e0ee" stroke-width="1.51"/><path d="M587,-45L507,-40L479,32Z" fill="#d5dbeb" stroke="#d5dbeb" stroke-width="1.51"/><path d="M1201,296L1128,219L1115,334Z" fill="#7496c1" stroke="#7496c1" stroke-width="1.51"/><path d="M1115,334L1128,219L1014,253Z" fill="#799bc9" stroke="#799bc9" stroke-width="1.51"/><path d="M1036,153L1048,81L946,66Z" fill="#96b1d5" stroke="#96b1d5" stroke-width="1.51"/><path d="M1135,167L1048,81L1036,153Z" fill="#8fa8d1" stroke="#8fa8d1" stroke-width="1.51"/><path d="M837,759L941,775L928,685Z" fill="#2379ae" stroke="#2379ae" stroke-width="1.51"/><path d="M920,852L941,775L837,759Z" fill="#2173a4" stroke="#2173a4" stroke-width="1.51"/><path d="M738,778L771,840L837,759Z" fill="#3c7baa" stroke="#3c7baa" stroke-width="1.51"/><path d="M672,856L771,840L738,778Z" fill="#4379a4" stroke="#4379a4" stroke-width="1.51"/><path d="M672,856L660,752L610,775Z" fill="#5383ae" stroke="#5383ae" stroke-width="1.51"/><path d="M217,346L219,411L343,426Z" fill="#b8c8e1" stroke="#b8c8e1" stroke-width="1.51"/><path d="M215,169L242,252L344,155Z" fill="#dbd9eb" stroke="#dbd9eb" stroke-width="1.51"/><path d="M1126,406L1167,399L1115,334Z" fill="#5e8ebe" stroke="#5e8ebe" stroke-width="1.51"/><path d="M1214,511L1126,406L1087,484Z" fill="#4686b8" stroke="#4686b8" stroke-width="1.51"/><path d="M1015,776L1050,695L928,685Z" fill="#1772ac" stroke="#1772ac" stroke-width="1.51"/><path d="M486,819L610,775L516,737Z" fill="#658bb5" stroke="#658bb5" stroke-width="1.51"/><path d="M217,346L343,426L323,304Z" fill="#bcc9e2" stroke="#bcc9e2" stroke-width="1.51"/><path d="M223,473L347,557L350,464Z" fill="#9fbada" stroke="#9fbada" stroke-width="1.51"/><path d="M242,252L217,346L323,304Z" fill="#cad0e6" stroke="#cad0e6" stroke-width="1.51"/><path d="M219,411L223,473L343,426Z" fill="#aec4df" stroke="#aec4df" stroke-width="1.51"/><path d="M1048,81L955,-28L946,66Z" fill="#9db7d9" stroke="#9db7d9" stroke-width="1.51"/><path d="M446,729L486,819L516,737Z" fill="#6d8fba" stroke="#6d8fba" stroke-width="1.51"/><path d="M428,837L486,819L446,729Z" fill="#6e8db4" stroke="#6e8db4" stroke-width="1.51"/><path d="M354,764L431,640L319,640Z" fill="#809eca" stroke="#809eca" stroke-width="1.51"/><path d="M1128,219L1135,167L1036,153Z" fill="#87a2cc" stroke="#87a2cc" stroke-width="1.51"/><path d="M1048,81L1046,-39L955,-28Z" fill="#9eb6d9" stroke="#9eb6d9" stroke-width="1.51"/><path d="M1209,218L1135,167L1128,219Z" fill="#829cc5" stroke="#829cc5" stroke-width="1.51"/><path d="M587,-45L566,-114L507,-40Z" fill="#d1d9ea" stroke="#d1d9ea" stroke-width="1.51"/><path d="M739,-141L661,-108L746,-36Z" fill="#bcd0e5" stroke="#bcd0e5" stroke-width="1.51"/><path d="M739,-141L746,-36L866,-132Z" fill="#b4cbe3" stroke="#b4cbe3" stroke-width="1.51"/><path d="M486,819L566,865L610,775Z" fill="#5f83ab" stroke="#5f83ab" stroke-width="1.51"/><path d="M1050,695L1101,680L996,597Z" fill="#1475b3" stroke="#1475b3" stroke-width="1.51"/><path d="M1114,560L1177,556L1087,484Z" fill="#3080b5" stroke="#3080b5" stroke-width="1.51"/><path d="M1115,745L1101,680L1050,695Z" fill="#056caa" stroke="#056caa" stroke-width="1.51"/><path d="M920,852L1015,776L941,775Z" fill="#1a6da0" stroke="#1a6da0" stroke-width="1.51"/><path d="M941,775L1015,776L928,685Z" fill="#1b73aa" stroke="#1b73aa" stroke-width="1.51"/><path d="M507,-40L394,-32L479,32Z" fill="#dcdeed" stroke="#dcdeed" stroke-width="1.51"/><path d="M164,227L182,296L242,252Z" fill="#d7d8ea" stroke="#d7d8ea" stroke-width="1.51"/><path d="M434,-98L394,-32L507,-40Z" fill="#dedfee" stroke="#dedfee" stroke-width="1.51"/><path d="M661,-108L566,-114L587,-45Z" fill="#cbd6e9" stroke="#cbd6e9" stroke-width="1.51"/><path d="M1309,334L1201,296L1167,399Z" fill="#648bb7" stroke="#648bb7" stroke-width="1.51"/><path d="M1167,399L1201,296L1115,334Z" fill="#6690bd" stroke="#6690bd" stroke-width="1.51"/><path d="M1101,680L1177,556L1114,560Z" fill="#1c78b0" stroke="#1c78b0" stroke-width="1.51"/><path d="M486,819L506,951L566,865Z" fill="#5e7b9d" stroke="#5e7b9d" stroke-width="1.51"/><path d="M258,746L354,764L319,640Z" fill="#849dc6" stroke="#849dc6" stroke-width="1.51"/><path d="M771,840L860,867L837,759Z" fill="#3274a0" stroke="#3274a0" stroke-width="1.51"/><path d="M845,920L860,867L771,840Z" fill="#2e6b93" stroke="#2e6b93" stroke-width="1.51"/><path d="M735,903L771,840L672,856Z" fill="#407399" stroke="#407399" stroke-width="1.51"/><path d="M242,252L182,296L217,346Z" fill="#ced3e8" stroke="#ced3e8" stroke-width="1.51"/><path d="M217,346L145,379L219,411Z" fill="#c0cde4" stroke="#c0cde4" stroke-width="1.51"/><path d="M219,411L162,505L223,473Z" fill="#aec5df" stroke="#aec5df" stroke-width="1.51"/><path d="M215,169L344,155L349,80Z" fill="#dfdded" stroke="#dfdded" stroke-width="1.51"/><path d="M860,867L920,852L837,759Z" fill="#27709d" stroke="#27709d" stroke-width="1.51"/><path d="M866,-132L746,-36L859,-36Z" fill="#afc8e0" stroke="#afc8e0" stroke-width="1.51"/><path d="M661,-108L739,-141L566,-114Z" fill="#c4d3e7" stroke="#c4d3e7" stroke-width="1.51"/><path d="M668,936L735,903L672,856Z" fill="#436f93" stroke="#436f93" stroke-width="1.51"/><path d="M860,867L935,928L920,852Z" fill="#1c658f" stroke="#1c658f" stroke-width="1.51"/><path d="M222,40L215,169L349,80Z" fill="#e7e3f0" stroke="#e7e3f0" stroke-width="1.51"/><path d="M354,764L428,837L446,729Z" fill="#7591b9" stroke="#7591b9" stroke-width="1.51"/><path d="M580,937L668,936L672,856Z" fill="#4b7294" stroke="#4b7294" stroke-width="1.51"/><path d="M1211,122L1118,54L1135,167Z" fill="#8da4c9" stroke="#8da4c9" stroke-width="1.51"/><path d="M1135,167L1118,54L1048,81Z" fill="#91a9d0" stroke="#91a9d0" stroke-width="1.51"/><path d="M955,-28L961,-84L859,-36Z" fill="#a4c0dd" stroke="#a4c0dd" stroke-width="1.51"/><path d="M1046,-39L961,-84L955,-28Z" fill="#a0bada" stroke="#a0bada" stroke-width="1.51"/><path d="M1177,556L1214,511L1087,484Z" fill="#367fb3" stroke="#367fb3" stroke-width="1.51"/><path d="M1293,515L1214,511L1293,601Z" fill="#2a76a7" stroke="#2a76a7" stroke-width="1.51"/><path d="M1201,296L1209,218L1128,219Z" fill="#7a97c0" stroke="#7a97c0" stroke-width="1.51"/><path d="M1252,172L1209,218L1274,219Z" fill="#7e96bb" stroke="#7e96bb" stroke-width="1.51"/><path d="M394,-32L336,-22L349,80Z" fill="#e7e3f0" stroke="#e7e3f0" stroke-width="1.51"/><path d="M326,-138L336,-22L394,-32Z" fill="#e8e4f1" stroke="#e8e4f1" stroke-width="1.51"/><path d="M961,-84L866,-132L859,-36Z" fill="#a6c3dd" stroke="#a6c3dd" stroke-width="1.51"/><path d="M739,-141L483,-118L566,-114Z" fill="#ccd7e9" stroke="#ccd7e9" stroke-width="1.51"/><path d="M566,-114L483,-118L507,-40Z" fill="#d5dbeb" stroke="#d5dbeb" stroke-width="1.51"/><path d="M483,-118L434,-98L507,-40Z" fill="#dadded" stroke="#dadded" stroke-width="1.51"/><path d="M269,598L241,684L319,640Z" fill="#8ca9d1" stroke="#8ca9d1" stroke-width="1.51"/><path d="M354,764L309,811L428,837Z" fill="#7890b5" stroke="#7890b5" stroke-width="1.51"/><path d="M130,664L241,684L269,598Z" fill="#91abd2" stroke="#91abd2" stroke-width="1.51"/><path d="M162,505L269,598L223,473Z" fill="#a0bcda" stroke="#a0bcda" stroke-width="1.51"/><path d="M1118,54L1046,-39L1048,81Z" fill="#99b0d5" stroke="#99b0d5" stroke-width="1.51"/><path d="M145,379L162,505L219,411Z" fill="#b6c9e2" stroke="#b6c9e2" stroke-width="1.51"/><path d="M182,296L145,379L217,346Z" fill="#c9d1e7" stroke="#c9d1e7" stroke-width="1.51"/><path d="M63,314L145,379L182,296Z" fill="#cdd4e8" stroke="#cdd4e8" stroke-width="1.51"/><path d="M151,165L164,227L215,169Z" fill="#e2dfee" stroke="#e2dfee" stroke-width="1.51"/><path d="M215,169L164,227L242,252Z" fill="#dddbec" stroke="#dddbec" stroke-width="1.51"/><path d="M1101,680L1210,682L1177,556Z" fill="#1270aa" stroke="#1270aa" stroke-width="1.51"/><path d="M1015,776L1115,745L1050,695Z" fill="#0a6ba7" stroke="#0a6ba7" stroke-width="1.51"/><path d="M1091,865L1115,745L1015,776Z" fill="#06649d" stroke="#06649d" stroke-width="1.51"/><path d="M735,903L845,920L771,840Z" fill="#356c92" stroke="#356c92" stroke-width="1.51"/><path d="M580,937L672,856L566,865Z" fill="#517698" stroke="#517698" stroke-width="1.51"/><path d="M920,852L1038,855L1015,776Z" fill="#156698" stroke="#156698" stroke-width="1.51"/><path d="M825,993L845,920L735,903Z" fill="#31698e" stroke="#31698e" stroke-width="1.51"/><path d="M506,951L580,937L566,865Z" fill="#587797" stroke="#587797" stroke-width="1.51"/><path d="M241,684L258,746L319,640Z" fill="#88a2cb" stroke="#88a2cb" stroke-width="1.51"/><path d="M412,912L506,951L486,819Z" fill="#637c9b" stroke="#637c9b" stroke-width="1.51"/><path d="M135,725L258,746L241,684Z" fill="#8ba3c9" stroke="#8ba3c9" stroke-width="1.51"/><path d="M1209,218L1211,122L1135,167Z" fill="#859dc3" stroke="#859dc3" stroke-width="1.51"/><path d="M1118,54L1120,-33L1046,-39Z" fill="#9ab0d4" stroke="#9ab0d4" stroke-width="1.51"/><path d="M1252,172L1211,122L1209,218Z" fill="#839abf" stroke="#839abf" stroke-width="1.51"/><path d="M258,746L309,811L354,764Z" fill="#8098bd" stroke="#8098bd" stroke-width="1.51"/><path d="M88,503L143,558L162,505Z" fill="#a6c1dd" stroke="#a6c1dd" stroke-width="1.51"/><path d="M162,505L143,558L269,598Z" fill="#9cbbd9" stroke="#9cbbd9" stroke-width="1.51"/><path d="M336,-22L222,40L349,80Z" fill="#e9e5f1" stroke="#e9e5f1" stroke-width="1.51"/><path d="M258,-29L222,40L336,-22Z" fill="#eee9f3" stroke="#eee9f3" stroke-width="1.51"/><path d="M145,54L151,165L215,169Z" fill="#eae6f1" stroke="#eae6f1" stroke-width="1.51"/><path d="M63,314L66,431L145,379Z" fill="#c6d2e7" stroke="#c6d2e7" stroke-width="1.51"/><path d="M935,928L1038,855L920,852Z" fill="#16608d" stroke="#16608d" stroke-width="1.51"/><path d="M1187,-29L1120,-33L1118,54Z" fill="#98accf" stroke="#98accf" stroke-width="1.51"/><path d="M1046,-39L1044,-128L961,-84Z" fill="#9eb7d9" stroke="#9eb7d9" stroke-width="1.51"/><path d="M961,-84L1044,-128L866,-132Z" fill="#a2bddb" stroke="#a2bddb" stroke-width="1.51"/><path d="M1211,122L1201,34L1118,54Z" fill="#90a6c9" stroke="#90a6c9" stroke-width="1.51"/><path d="M1274,219L1209,218L1201,296Z" fill="#7894bb" stroke="#7894bb" stroke-width="1.51"/><path d="M1187,768L1210,682L1115,745Z" fill="#05659e" stroke="#05659e" stroke-width="1.51"/><path d="M1115,745L1210,682L1101,680Z" fill="#0569a5" stroke="#0569a5" stroke-width="1.51"/><path d="M1309,334L1274,219L1201,296Z" fill="#6f8eb6" stroke="#6f8eb6" stroke-width="1.51"/><path d="M845,920L935,928L860,867Z" fill="#21648b" stroke="#21648b" stroke-width="1.51"/><path d="M825,993L935,928L845,920Z" fill="#24648c" stroke="#24648c" stroke-width="1.51"/><path d="M326,-138L258,-29L336,-22Z" fill="#ebe7f2" stroke="#ebe7f2" stroke-width="1.51"/><path d="M222,40L145,54L215,169Z" fill="#ede8f3" stroke="#ede8f3" stroke-width="1.51"/><path d="M326,-138L394,-32L434,-98Z" fill="#e4e2ef" stroke="#e4e2ef" stroke-width="1.51"/><path d="M1301,420L1167,399L1214,511Z" fill="#4a83b1" stroke="#4a83b1" stroke-width="1.51"/><path d="M691,1018L735,903L668,936Z" fill="#436f92" stroke="#436f92" stroke-width="1.51"/><path d="M788,1031L825,993L735,903Z" fill="#346a8f" stroke="#346a8f" stroke-width="1.51"/><path d="M412,912L486,819L428,837Z" fill="#6a83a5" stroke="#6a83a5" stroke-width="1.51"/><path d="M309,811L412,912L428,837Z" fill="#7187a7" stroke="#7187a7" stroke-width="1.51"/><path d="M1293,515L1301,420L1214,511Z" fill="#3e7caa" stroke="#3e7caa" stroke-width="1.51"/><path d="M309,811L309,931L412,912Z" fill="#7283a1" stroke="#7283a1" stroke-width="1.51"/><path d="M258,746L269,816L309,811Z" fill="#8197ba" stroke="#8197ba" stroke-width="1.51"/><path d="M140,849L269,816L258,746Z" fill="#8498b9" stroke="#8498b9" stroke-width="1.51"/><path d="M1293,601L1214,511L1177,556Z" fill="#2577aa" stroke="#2577aa" stroke-width="1.51"/><path d="M1187,-29L1201,34L1255,-38Z" fill="#95a8c8" stroke="#95a8c8" stroke-width="1.51"/><path d="M1294,35L1201,34L1211,122Z" fill="#8ea2c3" stroke="#8ea2c3" stroke-width="1.51"/><path d="M1301,420L1309,334L1167,399Z" fill="#5986b1" stroke="#5986b1" stroke-width="1.51"/><path d="M1342,299L1309,334L1434,384Z" fill="#5d7fa4" stroke="#5d7fa4" stroke-width="1.51"/><path d="M1100,-93L1046,-39L1120,-33Z" fill="#9ab0d5" stroke="#9ab0d5" stroke-width="1.51"/><path d="M1100,-93L1044,-128L1046,-39Z" fill="#9bb2d6" stroke="#9bb2d6" stroke-width="1.51"/><path d="M866,-132L1044,-128L739,-141Z" fill="#a8c3de" stroke="#a8c3de" stroke-width="1.51"/><path d="M66,431L88,503L162,505Z" fill="#b0c7e1" stroke="#b0c7e1" stroke-width="1.51"/><path d="M143,558L130,664L269,598Z" fill="#97b4d6" stroke="#97b4d6" stroke-width="1.51"/><path d="M66,431L162,505L145,379Z" fill="#b8cbe3" stroke="#b8cbe3" stroke-width="1.51"/><path d="M1179,-114L1100,-93L1120,-33Z" fill="#98add0" stroke="#98add0" stroke-width="1.51"/><path d="M1047,921L1091,865L1038,855Z" fill="#075888" stroke="#075888" stroke-width="1.51"/><path d="M1038,855L1091,865L1015,776Z" fill="#0b6195" stroke="#0b6195" stroke-width="1.51"/><path d="M691,1018L668,936L580,1026Z" fill="#4a7194" stroke="#4a7194" stroke-width="1.51"/><path d="M935,928L1047,921L1038,855Z" fill="#105986" stroke="#105986" stroke-width="1.51"/><path d="M1091,865L1187,768L1115,745Z" fill="#046198" stroke="#046198" stroke-width="1.51"/><path d="M1210,682L1293,601L1177,556Z" fill="#186fa6" stroke="#186fa6" stroke-width="1.51"/><path d="M63,314L182,296L164,227Z" fill="#d7d9eb" stroke="#d7d9eb" stroke-width="1.51"/><path d="M135,725L130,664L75,691Z" fill="#93aacf" stroke="#93aacf" stroke-width="1.51"/><path d="M57,582L130,664L143,558Z" fill="#9bb8d8" stroke="#9bb8d8" stroke-width="1.51"/><path d="M62,219L63,314L164,227Z" fill="#deddec" stroke="#deddec" stroke-width="1.51"/><path d="M62,219L164,227L151,165Z" fill="#e3e0ee" stroke="#e3e0ee" stroke-width="1.51"/><path d="M739,-141L326,-138L483,-118Z" fill="#d6dbeb" stroke="#d6dbeb" stroke-width="1.51"/><path d="M483,-118L326,-138L434,-98Z" fill="#e1e1ef" stroke="#e1e1ef" stroke-width="1.51"/><path d="M1382,430L1309,334L1301,420Z" fill="#527da5" stroke="#527da5" stroke-width="1.51"/><path d="M1304,656L1293,601L1210,682Z" fill="#0f689f" stroke="#0f689f" stroke-width="1.51"/><path d="M580,1026L668,936L580,937Z" fill="#507395" stroke="#507395" stroke-width="1.51"/><path d="M169,-4L222,40L258,-29Z" fill="#f2edf5" stroke="#f2edf5" stroke-width="1.51"/><path d="M169,-4L145,54L222,40Z" fill="#f3edf5" stroke="#f3edf5" stroke-width="1.51"/><path d="M1201,34L1187,-29L1118,54Z" fill="#95a9cc" stroke="#95a9cc" stroke-width="1.51"/><path d="M1294,35L1211,122L1252,172Z" fill="#899ebf" stroke="#899ebf" stroke-width="1.51"/><path d="M993,1005L1047,921L935,928Z" fill="#125b86" stroke="#125b86" stroke-width="1.51"/><path d="M1262,821L1280,726L1187,768Z" fill="#045c91" stroke="#045c91" stroke-width="1.51"/><path d="M236,-102L169,-4L258,-29Z" fill="#f2ecf5" stroke="#f2ecf5" stroke-width="1.51"/><path d="M1309,334L1342,299L1274,219Z" fill="#6c89ae" stroke="#6c89ae" stroke-width="1.51"/><path d="M1274,219L1340,163L1252,172Z" fill="#7e94b6" stroke="#7e94b6" stroke-width="1.51"/><path d="M1354,505L1301,420L1293,515Z" fill="#3c77a3" stroke="#3c77a3" stroke-width="1.51"/><path d="M46,127L151,165L145,54Z" fill="#efe9f4" stroke="#efe9f4" stroke-width="1.51"/><path d="M46,127L62,219L151,165Z" fill="#eae5f1" stroke="#eae5f1" stroke-width="1.51"/><path d="M506,951L580,1026L580,937Z" fill="#577697" stroke="#577697" stroke-width="1.51"/><path d="M486,1024L580,1026L506,951Z" fill="#5b7897" stroke="#5b7897" stroke-width="1.51"/><path d="M486,1024L506,951L412,912Z" fill="#627b99" stroke="#627b99" stroke-width="1.51"/><path d="M825,993L946,1004L935,928Z" fill="#1c628a" stroke="#1c628a" stroke-width="1.51"/><path d="M691,1018L788,1031L735,903Z" fill="#3c6c90" stroke="#3c6c90" stroke-width="1.51"/><path d="M580,1026L788,1031L691,1018Z" fill="#447092" stroke="#447092" stroke-width="1.51"/><path d="M130,664L135,725L241,684Z" fill="#90a8cf" stroke="#90a8cf" stroke-width="1.51"/><path d="M57,582L143,558L88,503Z" fill="#a3c0dc" stroke="#a3c0dc" stroke-width="1.51"/><path d="M1342,299L1342,229L1274,219Z" fill="#728bae" stroke="#728bae" stroke-width="1.51"/><path d="M326,-138L236,-102L258,-29Z" fill="#eee9f3" stroke="#eee9f3" stroke-width="1.51"/><path d="M1338,599L1354,505L1293,515Z" fill="#29709d" stroke="#29709d" stroke-width="1.51"/><path d="M1280,726L1304,656L1210,682Z" fill="#05639c" stroke="#05639c" stroke-width="1.51"/><path d="M1280,726L1210,682L1187,768Z" fill="#04629a" stroke="#04629a" stroke-width="1.51"/><path d="M-4,312L66,431L63,314Z" fill="#ced6e9" stroke="#ced6e9" stroke-width="1.51"/><path d="M-3,486L88,503L66,431Z" fill="#b5cbe2" stroke="#b5cbe2" stroke-width="1.51"/><path d="M-3,486L57,582L88,503Z" fill="#abc5df" stroke="#abc5df" stroke-width="1.51"/><path d="M1338,599L1293,515L1293,601Z" fill="#1e6e9e" stroke="#1e6e9e" stroke-width="1.51"/><path d="M1342,299L1442,259L1342,229Z" fill="#6c84a5" stroke="#6c84a5" stroke-width="1.51"/><path d="M788,1031L946,1004L825,993Z" fill="#28658c" stroke="#28658c" stroke-width="1.51"/><path d="M269,816L309,931L309,811Z" fill="#798caa" stroke="#798caa" stroke-width="1.51"/><path d="M244,927L309,931L269,816Z" fill="#7686a1" stroke="#7686a1" stroke-width="1.51"/><path d="M580,1026L388,1028L788,1031Z" fill="#537596" stroke="#537596" stroke-width="1.51"/><path d="M388,1028L486,1024L412,912Z" fill="#677d9a" stroke="#677d9a" stroke-width="1.51"/><path d="M1304,656L1338,599L1293,601Z" fill="#15689a" stroke="#15689a" stroke-width="1.51"/><path d="M1221,859L1187,768L1091,865Z" fill="#04598b" stroke="#04598b" stroke-width="1.51"/><path d="M1304,656L1348,679L1338,599Z" fill="#0e6295" stroke="#0e6295" stroke-width="1.51"/><path d="M1342,229L1340,163L1274,219Z" fill="#798fb0" stroke="#798fb0" stroke-width="1.51"/><path d="M1425,125L1340,163L1342,229Z" fill="#7a8caa" stroke="#7a8caa" stroke-width="1.51"/><path d="M1354,505L1382,430L1301,420Z" fill="#4377a0" stroke="#4377a0" stroke-width="1.51"/><path d="M1434,384L1382,430L1451,518Z" fill="#417095" stroke="#417095" stroke-width="1.51"/><path d="M1187,-29L1179,-114L1120,-33Z" fill="#97abcd" stroke="#97abcd" stroke-width="1.51"/><path d="M1340,163L1294,35L1252,172Z" fill="#8599b8" stroke="#8599b8" stroke-width="1.51"/><path d="M169,-4L89,47L145,54Z" fill="#f5eef6" stroke="#f5eef6" stroke-width="1.51"/><path d="M64,-27L89,47L169,-4Z" fill="#f9f1f8" stroke="#f9f1f8" stroke-width="1.51"/><path d="M1255,-38L1179,-114L1187,-29Z" fill="#95a8c8" stroke="#95a8c8" stroke-width="1.51"/><path d="M1100,-93L1179,-114L1044,-128Z" fill="#99afd3" stroke="#99afd3" stroke-width="1.51"/><path d="M1047,921L1122,943L1091,865Z" fill="#035382" stroke="#035382" stroke-width="1.51"/><path d="M946,1004L993,1005L935,928Z" fill="#165e88" stroke="#165e88" stroke-width="1.51"/><path d="M788,1031L993,1005L946,1004Z" fill="#1b618a" stroke="#1b618a" stroke-width="1.51"/><path d="M140,849L244,927L269,816Z" fill="#7d8ea9" stroke="#7d8ea9" stroke-width="1.51"/><path d="M57,582L75,691L130,664Z" fill="#99b1d6" stroke="#99b1d6" stroke-width="1.51"/><path d="M89,47L46,127L145,54Z" fill="#f4edf6" stroke="#f4edf6" stroke-width="1.51"/><path d="M62,219L-4,312L63,314Z" fill="#dbddec" stroke="#dbddec" stroke-width="1.51"/><path d="M1294,35L1255,-38L1201,34Z" fill="#92a5c4" stroke="#92a5c4" stroke-width="1.51"/><path d="M-41,217L-4,312L62,219Z" fill="#e2e1ef" stroke="#e2e1ef" stroke-width="1.51"/><path d="M57,582L-1,605L75,691Z" fill="#9db7d8" stroke="#9db7d8" stroke-width="1.51"/><path d="M-15,436L-3,486L66,431Z" fill="#bbcfe5" stroke="#bbcfe5" stroke-width="1.51"/><path d="M1125,985L1122,943L1047,921Z" fill="#035281" stroke="#035281" stroke-width="1.51"/><path d="M309,931L388,1028L412,912Z" fill="#6e809c" stroke="#6e809c" stroke-width="1.51"/><path d="M140,849L258,746L135,725Z" fill="#8a9fc1" stroke="#8a9fc1" stroke-width="1.51"/><path d="M1122,943L1221,859L1091,865Z" fill="#03517f" stroke="#03517f" stroke-width="1.51"/><path d="M1280,726L1348,679L1304,656Z" fill="#045f95" stroke="#045f95" stroke-width="1.51"/><path d="M-4,312L-15,436L66,431Z" fill="#c7d4e8" stroke="#c7d4e8" stroke-width="1.51"/><path d="M314,1026L388,1028L309,931Z" fill="#71829d" stroke="#71829d" stroke-width="1.51"/><path d="M486,1024L388,1028L580,1026Z" fill="#607a98" stroke="#607a98" stroke-width="1.51"/><path d="M1451,518L1382,430L1354,505Z" fill="#386f96" stroke="#386f96" stroke-width="1.51"/><path d="M1391,780L1348,679L1280,726Z" fill="#04588a" stroke="#04588a" stroke-width="1.51"/><path d="M1221,859L1262,821L1187,768Z" fill="#035789" stroke="#035789" stroke-width="1.51"/><path d="M87,779L140,849L135,725Z" fill="#8ca0c1" stroke="#8ca0c1" stroke-width="1.51"/><path d="M75,691L87,779L135,725Z" fill="#91a7ca" stroke="#91a7ca" stroke-width="1.51"/><path d="M9,726L87,779L75,691Z" fill="#93a8cb" stroke="#93a8cb" stroke-width="1.51"/><path d="M-32,648L-1,605L-77,575Z" fill="#a1bbda" stroke="#a1bbda" stroke-width="1.51"/><path d="M-3,486L-1,605L57,582Z" fill="#a6c2de" stroke="#a6c2de" stroke-width="1.51"/><path d="M326,-138L141,-100L236,-102Z" fill="#f1ebf4" stroke="#f1ebf4" stroke-width="1.51"/><path d="M236,-102L141,-100L169,-4Z" fill="#f5eff6" stroke="#f5eff6" stroke-width="1.51"/><path d="M-7,67L-30,142L46,127Z" fill="#f5eff6" stroke="#f5eff6" stroke-width="1.51"/><path d="M1382,430L1434,384L1309,334Z" fill="#537a9f" stroke="#537a9f" stroke-width="1.51"/><path d="M1368,-40L1255,-38L1294,35Z" fill="#8fa0bc" stroke="#8fa0bc" stroke-width="1.51"/><path d="M1451,518L1354,505L1443,564Z" fill="#2a6890" stroke="#2a6890" stroke-width="1.51"/><path d="M1221,859L1271,898L1262,821Z" fill="#044f7d" stroke="#044f7d" stroke-width="1.51"/><path d="M1122,943L1215,946L1221,859Z" fill="#034d79" stroke="#034d79" stroke-width="1.51"/><path d="M993,1005L1125,985L1047,921Z" fill="#085584" stroke="#085584" stroke-width="1.51"/><path d="M1368,-40L1265,-101L1255,-38Z" fill="#90a1bd" stroke="#90a1bd" stroke-width="1.51"/><path d="M1255,-38L1265,-101L1179,-114Z" fill="#94a6c6" stroke="#94a6c6" stroke-width="1.51"/><path d="M1372,55L1294,35L1340,163Z" fill="#8697b3" stroke="#8697b3" stroke-width="1.51"/><path d="M242,982L314,1026L309,931Z" fill="#74849f" stroke="#74849f" stroke-width="1.51"/><path d="M242,982L309,931L244,927Z" fill="#76869f" stroke="#76869f" stroke-width="1.51"/><path d="M141,-100L64,-27L169,-4Z" fill="#f8f1f8" stroke="#f8f1f8" stroke-width="1.51"/><path d="M-30,142L-41,217L62,219Z" fill="#ebe7f2" stroke="#ebe7f2" stroke-width="1.51"/><path d="M1425,125L1372,55L1340,163Z" fill="#8190ab" stroke="#8190ab" stroke-width="1.51"/><path d="M1434,384L1444,304L1342,299Z" fill="#5d7b9c" stroke="#5d7b9c" stroke-width="1.51"/><path d="M186,1008L242,982L244,927Z" fill="#7988a0" stroke="#7988a0" stroke-width="1.51"/><path d="M-115,381L-76,515L-15,436Z" fill="#bdd0e6" stroke="#bdd0e6" stroke-width="1.51"/><path d="M-76,515L-1,605L-3,486Z" fill="#abc5e0" stroke="#abc5e0" stroke-width="1.51"/><path d="M-30,142L62,219L46,127Z" fill="#eee9f3" stroke="#eee9f3" stroke-width="1.51"/><path d="M1444,304L1442,259L1342,299Z" fill="#657f9e" stroke="#657f9e" stroke-width="1.51"/><path d="M-7,67L46,127L89,47Z" fill="#f5eff7" stroke="#f5eff7" stroke-width="1.51"/><path d="M140,849L129,907L244,927Z" fill="#7e8ca4" stroke="#7e8ca4" stroke-width="1.51"/><path d="M46,846L129,907L140,849Z" fill="#8493ac" stroke="#8493ac" stroke-width="1.51"/><path d="M-32,648L9,726L75,691Z" fill="#98aed3" stroke="#98aed3" stroke-width="1.51"/><path d="M-32,648L75,691L-1,605Z" fill="#9db5d7" stroke="#9db5d7" stroke-width="1.51"/><path d="M1171,988L1215,946L1122,943Z" fill="#034e7a" stroke="#034e7a" stroke-width="1.51"/><path d="M1437,730L1433,657L1348,679Z" fill="#035586" stroke="#035586" stroke-width="1.51"/><path d="M1443,564L1354,505L1338,599Z" fill="#216994" stroke="#216994" stroke-width="1.51"/><path d="M1434,384L1513,300L1444,304Z" fill="#5b7797" stroke="#5b7797" stroke-width="1.51"/><path d="M1443,564L1338,599L1433,657Z" fill="#165f8d" stroke="#165f8d" stroke-width="1.51"/><path d="M9,-25L-7,67L89,47Z" fill="#fbf3f9" stroke="#fbf3f9" stroke-width="1.51"/><path d="M1433,657L1338,599L1348,679Z" fill="#0e5d8f" stroke="#0e5d8f" stroke-width="1.51"/><path d="M1282,1030L1125,985L993,1005Z" fill="#03507d" stroke="#03507d" stroke-width="1.51"/><path d="M1282,1030L1171,988L1125,985Z" fill="#034d78" stroke="#034d78" stroke-width="1.51"/><path d="M1125,985L1171,988L1122,943Z" fill="#03507d" stroke="#03507d" stroke-width="1.51"/><path d="M46,846L140,849L87,779Z" fill="#899ab7" stroke="#899ab7" stroke-width="1.51"/><path d="M1442,259L1425,125L1342,229Z" fill="#7486a3" stroke="#7486a3" stroke-width="1.51"/><path d="M1372,55L1368,-40L1294,35Z" fill="#8b9bb5" stroke="#8b9bb5" stroke-width="1.51"/><path d="M1339,849L1271,898L1383,943Z" fill="#024269" stroke="#024269" stroke-width="1.51"/><path d="M1215,946L1271,898L1221,859Z" fill="#034a74" stroke="#034a74" stroke-width="1.51"/><path d="M-76,515L-3,486L-15,436Z" fill="#b6cce3" stroke="#b6cce3" stroke-width="1.51"/><path d="M64,-27L9,-25L89,47Z" fill="#fcf4f9" stroke="#fcf4f9" stroke-width="1.51"/><path d="M141,-100L66,-84L64,-27Z" fill="#faf3f8" stroke="#faf3f8" stroke-width="1.51"/><path d="M-97,341L-15,436L-4,312Z" fill="#ced7e9" stroke="#ced7e9" stroke-width="1.51"/><path d="M1443,564L1515,495L1451,518Z" fill="#2a668d" stroke="#2a668d" stroke-width="1.51"/><path d="M1339,849L1280,726L1262,821Z" fill="#045585" stroke="#045585" stroke-width="1.51"/><path d="M-114,240L-97,341L-4,312Z" fill="#dadded" stroke="#dadded" stroke-width="1.51"/><path d="M-114,240L-4,312L-41,217Z" fill="#e1e1ef" stroke="#e1e1ef" stroke-width="1.51"/><path d="M-81,150L-41,217L-30,142Z" fill="#eee9f3" stroke="#eee9f3" stroke-width="1.51"/><path d="M1426,-30L1368,-40L1372,55Z" fill="#8997af" stroke="#8997af" stroke-width="1.51"/><path d="M-76,515L-77,575L-1,605Z" fill="#a5c2de" stroke="#a5c2de" stroke-width="1.51"/><path d="M49,916L46,846L-22,855Z" fill="#8795ad" stroke="#8795ad" stroke-width="1.51"/><path d="M-123,641L-77,575L-76,515Z" fill="#a4c0dd" stroke="#a4c0dd" stroke-width="1.51"/><path d="M1271,898L1339,849L1262,821Z" fill="#034c78" stroke="#034c78" stroke-width="1.51"/><path d="M1282,1030L1271,898L1215,946Z" fill="#034972" stroke="#034972" stroke-width="1.51"/><path d="M-108,66L-81,150L-30,142Z" fill="#f4eef6" stroke="#f4eef6" stroke-width="1.51"/><path d="M66,-84L9,-25L64,-27Z" fill="#fcf5fa" stroke="#fcf5fa" stroke-width="1.51"/><path d="M46,846L9,726L-22,855Z" fill="#90a0bd" stroke="#90a0bd" stroke-width="1.51"/><path d="M9,726L46,846L87,779Z" fill="#90a3c3" stroke="#90a3c3" stroke-width="1.51"/><path d="M1339,849L1391,780L1280,726Z" fill="#035282" stroke="#035282" stroke-width="1.51"/><path d="M129,907L186,1008L244,927Z" fill="#7c8aa2" stroke="#7c8aa2" stroke-width="1.51"/><path d="M242,982L186,1008L314,1026Z" fill="#7887a0" stroke="#7887a0" stroke-width="1.51"/><path d="M90,1018L186,1008L129,907Z" fill="#7f8ca3" stroke="#7f8ca3" stroke-width="1.51"/><path d="M-108,66L-30,142L-7,67Z" fill="#f7f0f7" stroke="#f7f0f7" stroke-width="1.51"/><path d="M-114,240L-115,381L-97,341Z" fill="#d6dbec" stroke="#d6dbec" stroke-width="1.51"/><path d="M-97,341L-115,381L-15,436Z" fill="#c9d5e9" stroke="#c9d5e9" stroke-width="1.51"/><path d="M1554,578L1515,495L1443,564Z" fill="#23648b" stroke="#23648b" stroke-width="1.51"/><path d="M1391,780L1437,730L1348,679Z" fill="#035382" stroke="#035382" stroke-width="1.51"/><path d="M1525,684L1437,730L1541,759Z" fill="#034e7b" stroke="#034e7b" stroke-width="1.51"/><path d="M-81,150L-114,240L-41,217Z" fill="#eae6f1" stroke="#eae6f1" stroke-width="1.51"/><path d="M1444,304L1513,300L1442,259Z" fill="#637b99" stroke="#637b99" stroke-width="1.51"/><path d="M1442,259L1537,219L1425,125Z" fill="#72829e" stroke="#72829e" stroke-width="1.51"/><path d="M1425,125L1458,50L1372,55Z" fill="#818fa7" stroke="#818fa7" stroke-width="1.51"/><path d="M1548,404L1513,300L1434,384Z" fill="#547596" stroke="#547596" stroke-width="1.51"/><path d="M1515,495L1434,384L1451,518Z" fill="#3b6c90" stroke="#3b6c90" stroke-width="1.51"/><path d="M1554,578L1443,564L1433,657Z" fill="#165d88" stroke="#165d88" stroke-width="1.51"/><path d="M1537,64L1458,50L1425,125Z" fill="#7f8ca3" stroke="#7f8ca3" stroke-width="1.51"/><path d="M1368,-40L1397,-139L1265,-101Z" fill="#8c9cb6" stroke="#8c9cb6" stroke-width="1.51"/><path d="M1458,50L1426,-30L1372,55Z" fill="#8592a9" stroke="#8592a9" stroke-width="1.51"/><path d="M46,846L49,916L129,907Z" fill="#8390a7" stroke="#8390a7" stroke-width="1.51"/><path d="M-119,757L9,726L-32,648Z" fill="#98add0" stroke="#98add0" stroke-width="1.51"/><path d="M-104,-32L-108,66L-7,67Z" fill="#fcf4f9" stroke="#fcf4f9" stroke-width="1.51"/><path d="M-81,150L-108,66L-114,240Z" fill="#f0ebf4" stroke="#f0ebf4" stroke-width="1.51"/><path d="M66,-84L6,-108L9,-25Z" fill="#fef6fb" stroke="#fef6fb" stroke-width="1.51"/><path d="M141,-100L6,-108L66,-84Z" fill="#fbf4f9" stroke="#fbf4f9" stroke-width="1.51"/><path d="M326,-138L6,-108L141,-100Z" fill="#f6f0f7" stroke="#f6f0f7" stroke-width="1.51"/><path d="M1513,300L1537,219L1442,259Z" fill="#687d9b" stroke="#687d9b" stroke-width="1.51"/><path d="M1515,495L1548,404L1434,384Z" fill="#457092" stroke="#457092" stroke-width="1.51"/><path d="M1554,578L1548,404L1515,495Z" fill="#346a8e" stroke="#346a8e" stroke-width="1.51"/><path d="M1442,-127L1397,-139L1426,-30Z" fill="#8793a9" stroke="#8793a9" stroke-width="1.51"/><path d="M1548,404L1537,219L1513,300Z" fill="#5f7998" stroke="#5f7998" stroke-width="1.51"/><path d="M-114,240L-123,641L-115,381Z" fill="#c2d2e7" stroke="#c2d2e7" stroke-width="1.51"/><path d="M-115,381L-123,641L-76,515Z" fill="#afc8e1" stroke="#afc8e1" stroke-width="1.51"/><path d="M-77,575L-123,641L-32,648Z" fill="#a0b9da" stroke="#a0b9da" stroke-width="1.51"/><path d="M-119,757L-22,855L9,726Z" fill="#93a6c4" stroke="#93a6c4" stroke-width="1.51"/><path d="M-104,-32L-7,67L9,-25Z" fill="#fff7fb" stroke="#fff7fb" stroke-width="1.51"/><path d="M1426,-30L1397,-139L1368,-40Z" fill="#8896ad" stroke="#8896ad" stroke-width="1.51"/><path d="M1265,-101L1397,-139L1179,-114Z" fill="#91a2c0" stroke="#91a2c0" stroke-width="1.51"/><path d="M1179,-114L1397,-139L1044,-128Z" fill="#95a8c8" stroke="#95a8c8" stroke-width="1.51"/><path d="M1044,-128L1397,-139L739,-141Z" fill="#9cb2d7" stroke="#9cb2d7" stroke-width="1.51"/><path d="M1525,-27L1426,-30L1458,50Z" fill="#8591a6" stroke="#8591a6" stroke-width="1.51"/><path d="M1339,849L1476,841L1391,780Z" fill="#02476f" stroke="#02476f" stroke-width="1.51"/><path d="M1171,988L1282,1030L1215,946Z" fill="#034b75" stroke="#034b75" stroke-width="1.51"/><path d="M788,1031L1282,1030L993,1005Z" fill="#0e5885" stroke="#0e5885" stroke-width="1.51"/><path d="M186,1008L90,1018L314,1026Z" fill="#7b89a1" stroke="#7b89a1" stroke-width="1.51"/><path d="M49,916L90,1018L129,907Z" fill="#818ea4" stroke="#818ea4" stroke-width="1.51"/><path d="M-18,1034L90,1018L49,916Z" fill="#8490a5" stroke="#8490a5" stroke-width="1.51"/><path d="M1525,684L1554,578L1433,657Z" fill="#0e5885" stroke="#0e5885" stroke-width="1.51"/><path d="M1525,684L1433,657L1437,730Z" fill="#035280" stroke="#035280" stroke-width="1.51"/><path d="M1476,841L1437,730L1391,780Z" fill="#034a73" stroke="#034a73" stroke-width="1.51"/><path d="M1282,1030L1383,943L1271,898Z" fill="#02446a" stroke="#02446a" stroke-width="1.51"/><path d="M1537,219L1554,137L1425,125Z" fill="#7786a0" stroke="#7786a0" stroke-width="1.51"/><path d="M1548,404L1554,137L1537,219Z" fill="#6a7e9b" stroke="#6a7e9b" stroke-width="1.51"/><path d="M1554,578L1554,137L1548,404Z" fill="#527495" stroke="#527495" stroke-width="1.51"/><path d="M-22,855L-30,940L49,916Z" fill="#8591a6" stroke="#8591a6" stroke-width="1.51"/><path d="M-123,641L-119,757L-32,648Z" fill="#9ab0d5" stroke="#9ab0d5" stroke-width="1.51"/><path d="M6,-108L-104,-32L9,-25Z" fill="#fff7fb" stroke="#fff7fb" stroke-width="1.51"/><path d="M1554,137L1537,64L1425,125Z" fill="#7d8ba2" stroke="#7d8ba2" stroke-width="1.51"/><path d="M1525,-27L1442,-127L1426,-30Z" fill="#8591a6" stroke="#8591a6" stroke-width="1.51"/><path d="M1383,943L1476,841L1339,849Z" fill="#023f63" stroke="#023f63" stroke-width="1.51"/><path d="M-99,844L-30,940L-22,855Z" fill="#8895ab" stroke="#8895ab" stroke-width="1.51"/><path d="M-119,757L-99,844L-22,855Z" fill="#8f9fbb" stroke="#8f9fbb" stroke-width="1.51"/><path d="M1383,943L1440,944L1476,841Z" fill="#023859" stroke="#023859" stroke-width="1.51"/><path d="M1282,1030L1354,1026L1383,943Z" fill="#024166" stroke="#024166" stroke-width="1.51"/><path d="M1537,64L1525,-27L1458,50Z" fill="#8390a5" stroke="#8390a5" stroke-width="1.51"/><path d="M1535,-113L1525,-27L1537,64Z" fill="#8591a6" stroke="#8591a6" stroke-width="1.51"/><path d="M1526,819L1437,730L1476,841Z" fill="#034770" stroke="#034770" stroke-width="1.51"/><path d="M1526,819L1541,759L1437,730Z" fill="#034a75" stroke="#034a75" stroke-width="1.51"/><path d="M1525,684L1541,759L1554,578Z" fill="#045383" stroke="#045383" stroke-width="1.51"/><path d="M6,-108L-98,-110L-104,-32Z" fill="#fff7fb" stroke="#fff7fb" stroke-width="1.51"/><path d="M326,-138L-98,-110L6,-108Z" fill="#fbf3f9" stroke="#fbf3f9" stroke-width="1.51"/><path d="M1442,1005L1440,944L1383,943Z" fill="#02395a" stroke="#02395a" stroke-width="1.51"/><path d="M1523,933L1526,819L1476,841Z" fill="#023d60" stroke="#023d60" stroke-width="1.51"/><path d="M90,1018L-18,1034L314,1026Z" fill="#7f8ca3" stroke="#7f8ca3" stroke-width="1.51"/><path d="M314,1026L-18,1034L388,1028Z" fill="#7987a0" stroke="#7987a0" stroke-width="1.51"/><path d="M388,1028L-18,1034L788,1031Z" fill="#6c7f9b" stroke="#6c7f9b" stroke-width="1.51"/><path d="M788,1031L-18,1034L1282,1030Z" fill="#457092" stroke="#457092" stroke-width="1.51"/><path d="M-30,940L-18,1034L49,916Z" fill="#8591a6" stroke="#8591a6" stroke-width="1.51"/><path d="M-113,1016L-18,1034L-30,940Z" fill="#8591a6" stroke="#8591a6" stroke-width="1.51"/><path d="M1440,944L1523,933L1476,841Z" fill="#023858" stroke="#023858" stroke-width="1.51"/><path d="M1354,1026L1442,1005L1383,943Z" fill="#023c5e" stroke="#023c5e" stroke-width="1.51"/><path d="M1442,-127L1535,-113L1397,-139Z" fill="#8591a6" stroke="#8591a6" stroke-width="1.51"/><path d="M1525,-27L1535,-113L1442,-127Z" fill="#8591a6" stroke="#8591a6" stroke-width="1.51"/><path d="M1554,137L1535,-113L1537,64Z" fill="#8390a5" stroke="#8390a5" stroke-width="1.51"/><path d="M-99,844L-117,946L-30,940Z" fill="#8591a6" stroke="#8591a6" stroke-width="1.51"/><path d="M-119,757L-117,946L-99,844Z" fill="#8b9ab3" stroke="#8b9ab3" stroke-width="1.51"/><path d="M-123,641L-117,946L-119,757Z" fill="#93a5c4" stroke="#93a5c4" stroke-width="1.51"/><path d="M1442,1005L1523,933L1440,944Z" fill="#023858" stroke="#023858" stroke-width="1.51"/><path d="M1526,819L1543,985L1541,759Z" fill="#023e62" stroke="#023e62" stroke-width="1.51"/><path d="M-117,946L-113,1016L-30,940Z" fill="#8591a6" stroke="#8591a6" stroke-width="1.51"/><path d="M1442,1005L1543,985L1523,933Z" fill="#023858" stroke="#023858" stroke-width="1.51"/><path d="M1523,933L1543,985L1526,819Z" fill="#023858" stroke="#023858" stroke-width="1.51"/><path d="M1541,759L1543,985L1554,578Z" fill="#034a74" stroke="#034a74" stroke-width="1.51"/><path d="M1354,1026L1543,985L1442,1005Z" fill="#023858" stroke="#023858" stroke-width="1.51"/></svg>